<?xml version="1.0" encoding="UTF-8" standalone="no"?>
<svg
   xmlns:dc="http://purl.org/dc/elements/1.1/"
   xmlns:cc="http://creativecommons.org/ns#"
   xmlns:rdf="http://www.w3.org/1999/02/22-rdf-syntax-ns#"
   xmlns:svg="http://www.w3.org/2000/svg"
   xmlns="http://www.w3.org/2000/svg"
   xmlns:sodipodi="http://sodipodi.sourceforge.net/DTD/sodipodi-0.dtd"
   xmlns:inkscape="http://www.inkscape.org/namespaces/inkscape"
   height="140"
   width="140"
   version="1.1"
   viewBox="0 0 140 140"
   id="svg865"
   sodipodi:docname="square.svg"
   inkscape:version="1.0.1 (3bc2e813f5, 2020-09-07)"
   inkscape:export-filename="/home/felix/Documents/CSSA/Design/square-concept-1.svg.png"
   inkscape:export-xdpi="273.07001"
   inkscape:export-ydpi="273.07001">
  <metadata
     id="metadata871">
    <rdf:RDF>
      <cc:Work
         rdf:about="">
        <dc:format>image/svg+xml</dc:format>
        <dc:type
           rdf:resource="http://purl.org/dc/dcmitype/StillImage" />
        <dc:title />
      </cc:Work>
    </rdf:RDF>
  </metadata>
  <defs
     id="defs869" />
  <sodipodi:namedview
     pagecolor="#ffffff"
     bordercolor="#666666"
     borderopacity="1"
     objecttolerance="10"
     gridtolerance="10"
     guidetolerance="10"
     inkscape:pageopacity="0"
     inkscape:pageshadow="2"
     inkscape:window-width="1920"
     inkscape:window-height="1016"
     id="namedview867"
     showgrid="true"
     inkscape:zoom="1"
     inkscape:cx="410.766"
     inkscape:cy="40.418767"
     inkscape:window-x="0"
     inkscape:window-y="27"
     inkscape:window-maximized="1"
     inkscape:current-layer="svg865"
     inkscape:document-rotation="0">
    <inkscape:grid
       type="xygrid"
       id="grid883"
       empspacing="1"
       spacingx="10"
       spacingy="10" />
  </sodipodi:namedview>
  <path
     style="color:#000000;font-style:normal;font-variant:normal;font-weight:normal;font-stretch:normal;font-size:medium;line-height:normal;font-family:sans-serif;font-variant-ligatures:normal;font-variant-position:normal;font-variant-caps:normal;font-variant-numeric:normal;font-variant-alternates:normal;font-feature-settings:normal;text-indent:0;text-align:start;text-decoration:none;text-decoration-line:none;text-decoration-style:solid;text-decoration-color:#000000;letter-spacing:normal;word-spacing:normal;text-transform:none;writing-mode:lr-tb;direction:ltr;text-orientation:mixed;dominant-baseline:auto;baseline-shift:baseline;text-anchor:start;white-space:normal;shape-padding:0;clip-rule:nonzero;display:inline;overflow:visible;visibility:visible;opacity:1;isolation:auto;mix-blend-mode:normal;color-interpolation:sRGB;color-interpolation-filters:linearRGB;solid-color:#000000;solid-opacity:1;vector-effect:none;fill:#000000;fill-opacity:1;fill-rule:nonzero;stroke:none;stroke-width:3;stroke-linecap:butt;stroke-linejoin:miter;stroke-miterlimit:4;stroke-dasharray:none;stroke-dashoffset:0;stroke-opacity:1;color-rendering:auto;image-rendering:auto;shape-rendering:auto;text-rendering:auto;enable-background:accumulate"
     d="M 68,0.050781 C 30.378605,1.119279 0,32.129172 0,70 0,87.14886 6.239946,102.8849 16.548828,115.08203 22.893915,112.7262 28.747204,109.05574 33.607422,104.35742 25.16676,95.41552 20,83.34555 20,70 20,42.938098 41.20567,21.092325 68,20.050781 Z M 70,121.64062 C 63.557078,127.81744 56.001408,132.83911 47.804688,136.35938 54.786969,138.70761 62.245802,140 70,140 Z"
     id="path881" />
  <path
     style="color:#000000;font-style:normal;font-variant:normal;font-weight:normal;font-stretch:normal;font-size:medium;line-height:normal;font-family:sans-serif;font-variant-ligatures:normal;font-variant-position:normal;font-variant-caps:normal;font-variant-numeric:normal;font-variant-alternates:normal;font-feature-settings:normal;text-indent:0;text-align:start;text-decoration:none;text-decoration-line:none;text-decoration-style:solid;text-decoration-color:#000000;letter-spacing:normal;word-spacing:normal;text-transform:none;writing-mode:lr-tb;direction:ltr;text-orientation:mixed;dominant-baseline:auto;baseline-shift:baseline;text-anchor:start;white-space:normal;shape-padding:0;clip-rule:nonzero;display:inline;overflow:visible;visibility:visible;opacity:1;isolation:auto;mix-blend-mode:normal;color-interpolation:sRGB;color-interpolation-filters:linearRGB;solid-color:#000000;solid-opacity:1;vector-effect:none;fill:#000000;fill-opacity:1;fill-rule:nonzero;stroke:none;stroke-width:3;stroke-linecap:butt;stroke-linejoin:miter;stroke-miterlimit:4;stroke-dasharray:none;stroke-dashoffset:0;stroke-opacity:1;color-rendering:auto;image-rendering:auto;shape-rendering:auto;text-rendering:auto;enable-background:accumulate"
     d="m 120,0 c -7.71151,0 -15.13093,1.278034 -22.08008,3.601562 2.43679,1.049675 4.81465,2.234872 7.1211,3.548829 4.73014,-2.678768 9.75253,-4.829594 14.95898,-6.375 z M 70.115234,21.914062 c -0.299003,0.0017 -0.599083,0.01939 -0.898437,0.02734 C 57.32532,34.498445 50,51.419545 50,70 50,97.73268 27.732684,120 0,120 v 20 c 6.220095,0 12.251329,-0.83093 18,-2.36719 V 118.02344 C 36.725166,118.93601 55.353521,107.92061 63.275391,90.88672 69.460329,79.743354 66.918347,66.730685 69.632812,54.777344 71.905048,43.42929 77.212403,32.978226 84.56055,24.210938 79.917019,22.695794 75.042945,21.885316 70.115234,21.914062 Z"
     id="path879" />
  <path
     style="color:#000000;font-style:normal;font-variant:normal;font-weight:normal;font-stretch:normal;font-size:medium;line-height:normal;font-family:sans-serif;font-variant-ligatures:normal;font-variant-position:normal;font-variant-caps:normal;font-variant-numeric:normal;font-variant-alternates:normal;font-feature-settings:normal;text-indent:0;text-align:start;text-decoration:none;text-decoration-line:none;text-decoration-style:solid;text-decoration-color:#000000;letter-spacing:normal;word-spacing:normal;text-transform:none;writing-mode:lr-tb;direction:ltr;text-orientation:mixed;dominant-baseline:auto;baseline-shift:baseline;text-anchor:start;white-space:normal;shape-padding:0;clip-rule:nonzero;display:inline;overflow:visible;visibility:visible;opacity:1;isolation:auto;mix-blend-mode:normal;color-interpolation:sRGB;color-interpolation-filters:linearRGB;solid-color:#000000;solid-opacity:1;vector-effect:none;fill:#000000;fill-opacity:1;fill-rule:nonzero;stroke:none;stroke-width:3;stroke-linecap:butt;stroke-linejoin:miter;stroke-miterlimit:4;stroke-dasharray:none;stroke-dashoffset:0;stroke-opacity:1;color-rendering:auto;image-rendering:auto;shape-rendering:auto;text-rendering:auto;enable-background:accumulate"
     d="m 140,0 c -11.92108,0 -23.16133,3.016506 -33.00586,8.314453 6.33773,3.876533 12.09887,8.711934 17.02539,14.283203 C 129.03386,20.921326 134.40213,20 140,20 Z M 86.55273,24.912109 C 78.701165,34.199963 73.224942,45.543088 71.054688,58 H 91.44336 c 2.0789,-8.520871 6.3253,-16.161747 12.12891,-22.322266 C 98.71107,30.986683 92.88054,27.288315 86.55273,24.912109 Z M 68.556641,82 C 63.217595,103.88336 43.590844,120 20,120 v 20 c 34.449727,0 63.22043,-25.1401 68.94531,-58 z"
     id="path877" />
  <path
     style="color:#000000;font-style:normal;font-variant:normal;font-weight:normal;font-stretch:normal;font-size:medium;line-height:normal;font-family:sans-serif;font-variant-ligatures:normal;font-variant-position:normal;font-variant-caps:normal;font-variant-numeric:normal;font-variant-alternates:normal;font-feature-settings:normal;text-indent:0;text-align:start;text-decoration:none;text-decoration-line:none;text-decoration-style:solid;text-decoration-color:#000000;letter-spacing:normal;word-spacing:normal;text-transform:none;writing-mode:lr-tb;direction:ltr;text-orientation:mixed;dominant-baseline:auto;baseline-shift:baseline;text-anchor:start;white-space:normal;shape-padding:0;clip-rule:nonzero;display:inline;overflow:visible;visibility:visible;opacity:1;isolation:auto;mix-blend-mode:normal;color-interpolation:sRGB;color-interpolation-filters:linearRGB;solid-color:#000000;solid-opacity:1;vector-effect:none;fill:#000000;fill-opacity:1;fill-rule:nonzero;stroke:none;stroke-width:3;stroke-linecap:butt;stroke-linejoin:miter;stroke-miterlimit:4;stroke-dasharray:none;stroke-dashoffset:0;stroke-opacity:1;color-rendering:auto;image-rendering:auto;shape-rendering:auto;text-rendering:auto;enable-background:accumulate"
     d="m 70,0 v 20 c 24.30516,0 44.40891,17.103737 49.00781,40 -16.0931,0 -32.1862,0 -48.279294,0 C 70.256908,63.268679 70,66.60472 70,70 70,73.427516 69.65635,76.771168 69.007812,80 86.00521,80 103.0026,80 120,80 v 60 h 20 V 70 C 140,31.458514 108.54149,0 70,0 Z"
     id="path875"
     inkscape:connector-curvature="0"
     sodipodi:nodetypes="ccccsccccsc" />
</svg>
